<?xml version="1.0" encoding="UTF-8" standalone="no"?>
<svg
   width="450"
   height="180"
   viewBox="0 0 450 180"
   version="1.1"
   id="svg4"
   sodipodi:docname="yandex_logo_en.svg"
   inkscape:version="1.4.2 (ebf0e940d0, 2025-05-08)"
   xmlns:inkscape="http://www.inkscape.org/namespaces/inkscape"
   xmlns:sodipodi="http://sodipodi.sourceforge.net/DTD/sodipodi-0.dtd"
   xmlns="http://www.w3.org/2000/svg"
   xmlns:svg="http://www.w3.org/2000/svg">
  <defs
     id="defs4" />
  <sodipodi:namedview
     id="namedview4"
     pagecolor="#ffffff"
     bordercolor="#000000"
     borderopacity="0.25"
     inkscape:showpageshadow="2"
     inkscape:pageopacity="0.0"
     inkscape:pagecheckerboard="0"
     inkscape:deskcolor="#d1d1d1"
     inkscape:zoom="1.2848808"
     inkscape:cx="312.48034"
     inkscape:cy="90.280745"
     inkscape:window-width="1920"
     inkscape:window-height="1011"
     inkscape:window-x="0"
     inkscape:window-y="32"
     inkscape:window-maximized="1"
     inkscape:current-layer="svg4" />
  <g
     fill="none"
     fill-rule="evenodd"
     id="g4"
     transform="matrix(7.0038919,0,0,7.0038919,-96,-74)">
    <rect
       width="91"
       height="48"
       id="rect1"
       x="0"
       y="0" />
    <g
       transform="translate(17,12)"
       id="g3">
      <path
         fill="#ffffff"
         fill-opacity="0.9"
         d="m 14.744,23.904 c 0.644109,0 1.236799,-0.100531 1.779771,-0.29271 0.241484,0.08115 0.498831,0.12471 0.764229,0.12471 h 1.584 c 0.381468,0 0.739453,-0.08811 1.056647,-0.243887 0.3185,0.156191 0.676685,0.243887 1.055353,0.243887 h 1.872 c 0.573108,0 1.099298,-0.20088 1.512,-0.536072 0.412702,0.335192 0.938892,0.536072 1.512,0.536072 h 1.896 c 0.812441,0 1.530594,-0.40369 1.964816,-1.021424 0.933246,0.76779 2.121075,1.189424 3.555184,1.189424 0.613476,0 1.182567,-0.09831 1.707143,-0.284832 0.234103,0.07597 0.483278,0.116832 0.740857,0.116832 h 1.392 c 0.867019,0 1.626658,-0.459751 2.048426,-1.148761 1.016311,0.847032 2.31344,1.316761 3.855574,1.316761 0.952574,0 1.837583,-0.169061 2.652448,-0.493698 C 46.043214,23.615993 46.454794,23.736 46.904,23.736 h 1.848 c 0.728332,0 1.400592,-0.328842 1.848002,-0.868503 C 51.047597,23.4074 51.720016,23.736 52.448,23.736 h 1.944 c 1.690646,0 2.851348,-1.70136 2.234613,-3.275502 l -2.174138,-5.549228 1.90517,-4.783191 C 56.985375,8.5520763 55.824416,6.84 54.128,6.84 h -1.824 c -0.607423,0 -1.176228,0.2287839 -1.608002,0.6182825 C 50.264561,7.0690931 49.695986,6.84 49.088,6.84 h -1.944 c -0.626203,0 -1.179735,0.2334266 -1.597161,0.6073671 C 44.74737,6.9392085 43.782466,6.672 42.656,6.672 c -1.240354,0 -2.276215,0.3283687 -3.12,0.9299015 V 4.176 c 0,-1.3254834 -1.074517,-2.4 -2.4,-2.4 h -1.872 c -1.325483,0 -2.4,1.0745166 -2.4,2.4 V 6.7271182 C 31.423732,6.9159022 30.234334,7.5838105 29.32513,8.6407829 28.507998,7.3974237 27.135363,6.672 25.352,6.672 24.768012,6.672 24.20019,6.7755163 23.669234,6.9572862 23.415281,6.8658375 23.14146,6.816 22.856,6.816 h -1.872 c -0.792285,0 -1.494904,0.3839085 -1.931978,0.9758474 C 18.116145,7.0527728 16.868659,6.672 15.344,6.672 c -0.422968,0 -0.846943,0.040113 -1.261892,0.1148094 L 15.331362,3.1868086 C 15.87247,1.6274879 14.714539,0 13.064,0 H 11.168 C 10.139293,0 9.2249876,0.65559702 8.8949051,1.6299094 L 7.6320404,5.3575375 6.9250463,3.3712208 C 6.5846185,2.4147809 5.6792184,1.776 4.664,1.776 H 2.6 c -1.67350327,0 -2.83323217,1.6696517 -2.24899708,3.2378617 L 4.304,15.624538 V 21.336 c 0,1.325483 1.0745166,2.4 2.4,2.4 H 8.6 c 1.0351665,0 1.917264,-0.655368 2.25401,-1.573821 0.923966,1.095807 2.260708,1.741821 3.88999,1.741821 z"
         id="path1" />
      <path
         fill="#000000"
         d="m 18.656,18.6 c 0,1.152 0.12,2.16 0.216,2.736 H 17.288 C 17.216,21.072 17.144,20.688 17.12,20.376 H 17 c -0.528,0.672 -1.2,1.128 -2.256,1.128 -1.728,0 -2.904,-1.296 -2.904,-3.672 0,-2.592 1.32,-4.224 4.704,-4.224 h 0.264 v -0.72 c 0,-1.584 -0.528,-2.256 -1.584,-2.256 -0.96,0 -1.776,0.504 -2.4,1.056 l -0.36,-1.656 c 0.552,-0.456 1.656,-0.96 2.88,-0.96 2.136,0 3.312,0.912 3.312,3.84 z m -1.848,0.36 v -3.936 h -0.216 c -2.328,0 -2.832,1.032 -2.832,2.592 0,1.392 0.456,2.304 1.416,2.304 0.648,0 1.296,-0.432 1.632,-0.96 z m 6.048,-7.008 c 0.432,-0.6 1.104,-1.2 1.896,-1.2 0.72,0 1.128,0.312 1.128,1.224 v 9.36 h 1.896 v -9.528 c 0,-1.848 -0.84,-2.736 -2.424,-2.736 -1.128,0 -2.04,0.744 -2.376,1.2 h -0.12 V 9.216 h -1.872 v 12.12 h 1.872 z m 10.44,9.552 c -2.376,0 -3.672,-2.016 -3.672,-5.76 0,-4.488 1.68,-6.672 4.104,-6.672 0.576,0 1.176,0.192 1.536,0.456 V 4.176 h 1.872 v 17.16 H 35.744 L 35.6,20.376 h -0.12 c -0.528,0.672 -1.2,1.128 -2.184,1.128 z m 1.968,-2.52 v -7.8 C 34.88,10.8 34.472,10.608 33.848,10.608 c -1.512,0 -2.232,2.28 -2.232,4.752 0,2.832 0.528,4.56 1.896,4.56 0.936,0 1.44,-0.456 1.752,-0.936 z m 10.68,1.536 c -0.768,0.6 -1.704,0.984 -2.904,0.984 -2.496,0 -4.032,-1.992 -4.032,-5.712 0,-3.888 1.08,-6.72 3.648,-6.72 2.016,0 3.336,1.512 3.336,5.616 v 1.032 h -5.04 c 0,2.736 0.768,4.176 2.256,4.176 1.056,0 1.824,-0.48 2.304,-0.816 z m -3.288,-9.912 c -1.152,0 -1.56,1.416 -1.68,3.576 h 3.096 c 0,-2.064 -0.336,-3.576 -1.416,-3.576 z"
         id="path2" />
      <polygon
         fill="#000000"
         points="46.904,21.336 48.752,21.336 50.576,16.344 52.448,21.336 54.392,21.336 51.872,14.904 54.128,9.24 52.304,9.24 50.648,13.632 49.088,9.24 47.144,9.24 49.424,15.072 "
         id="polygon2" />
      <polygon
         fill="#ff0000"
         points="4.664,4.176 2.6,4.176 6.704,15.192 6.704,21.336 8.6,21.336 8.6,15.264 13.064,2.4 11.168,2.4 7.688,12.672 "
         id="polygon3" />
    </g>
  </g>
</svg>
